<svg width="142" height="30" viewBox="0 0 142 30" fill="none" xmlns="http://www.w3.org/2000/svg">
<path d="M45.5184 14.2811C44.22 15.381 42.4786 15.3963 41.9897 15.3963C41.3482 15.3963 39.2858 15.3657 37.7889 13.7923C37.6057 13.5936 37.407 13.3342 37.2695 13.0896L38.9652 11.9134C39.4388 12.616 40.3246 13.5327 42.3106 13.5327C42.4022 13.5327 42.784 13.5327 43.1049 13.4563C43.3339 13.4103 44.388 13.1202 44.388 12.1119C44.388 12.005 44.3727 11.7149 44.1895 11.4703C43.8228 10.9815 42.8453 10.8441 42.3106 10.7219L41.0273 10.4315C40.4775 10.3094 39.8816 10.1872 39.3927 9.92742C38.8888 9.66782 37.85 8.98025 37.85 7.42225C37.85 7.17792 37.8806 6.47527 38.2625 5.83351C38.7512 5.0087 39.9276 4.06152 42.1119 4.06152C43.0743 4.06152 44.9685 4.21423 46.4656 6.24601L44.8005 7.48333C44.4646 6.94866 43.7006 5.87932 42.005 5.87932C41.8981 5.87932 40.5386 5.86425 40.0956 6.70433C40.0038 6.87231 39.9734 7.02501 39.9734 7.19319C39.9734 7.37644 40.0192 7.52914 40.1109 7.68205C40.3705 8.12489 40.9662 8.26233 41.9592 8.47632L43.0743 8.72065C44.0979 8.9499 45.2283 9.25532 45.9462 10.0956C46.2516 10.4315 46.5725 10.9204 46.5725 11.9134C46.5725 12.8909 46.2669 13.6396 45.5184 14.2811Z" fill="white"/>
<path d="M48.1001 7.48332H49.9179V15.1212H48.1001V7.48332ZM48.1001 4.44348H49.9179V6.29182H48.1001V4.44348Z" fill="white"/>
<path d="M61.5273 15.1213V10.4469C61.5273 10.1566 61.4662 8.9651 60.2442 8.9651C59.9538 8.9651 59.297 9.07219 58.8847 9.7443C58.5333 10.2942 58.518 10.9205 58.518 11.5316V15.1213H56.7002V10.8442C56.7002 10.676 56.6849 10.508 56.6849 10.34C56.6849 10.1873 56.6849 9.65267 56.2724 9.27071C55.967 8.99564 55.5851 8.98037 55.4476 8.98037C55.2642 8.98037 54.8671 9.02638 54.4852 9.34706C53.7367 9.98863 53.7214 11.058 53.7214 11.9133V15.1213H51.8882V7.48345H53.7214L53.7367 8.33881C53.8589 8.17083 53.9047 8.12502 53.981 8.06393C54.2408 7.81961 55.0657 7.25439 56.135 7.25439C57.0056 7.25439 57.8306 7.65143 58.2584 8.41536C58.3958 8.24718 58.5485 8.03339 58.9611 7.75832C59.2817 7.54454 59.8164 7.25439 60.7178 7.25439C61.8787 7.25439 62.9175 7.75832 63.2382 8.94983C63.3298 9.30125 63.3453 9.60666 63.3453 10.2942V15.1213H61.5273Z" fill="white"/>
<path d="M68.7068 8.90422C68.5386 8.90422 68.0805 8.93476 67.668 9.19436C67.2707 9.45416 66.7361 10.0804 66.7361 11.2261C66.7361 11.5928 66.7668 11.9135 66.889 12.2647C67.0111 12.6314 67.5458 13.6702 68.7984 13.6702C70.1886 13.6702 70.8147 12.4482 70.7689 11.2414C70.7384 10.0499 70.051 8.90422 68.7068 8.90422ZM72.3729 12.9829C72.0675 13.7619 71.0745 15.3506 68.7984 15.3506C68.4777 15.3506 67.8207 15.3353 67.0722 14.9992C66.278 14.6479 64.8267 13.5786 64.8267 11.272C64.8267 10.4469 65.0559 9.83592 65.1628 9.56105C65.4835 8.79732 66.4612 7.25439 68.7373 7.25439C69.0275 7.25439 69.6998 7.28494 70.4177 7.60582C71.2425 7.95704 72.6633 8.98057 72.6785 11.272C72.6785 11.5468 72.6633 12.2647 72.3729 12.9829Z" fill="white"/>
<path d="M79.0326 15.1213V11.2259C79.0326 10.6302 79.0326 10.34 78.9562 10.0497C78.7424 9.16381 78.0549 9.04165 77.6884 9.04165C77.4899 9.04165 77.1079 9.07219 76.7259 9.39287C76.1762 9.85119 76.008 10.4928 76.008 11.8064V15.1213H74.1597V7.48345H76.008V8.38462C76.0385 8.33881 76.1913 8.14029 76.344 7.98758C77.0619 7.31548 78.1009 7.25439 78.3605 7.25439C79.4911 7.25439 80.1477 7.83468 80.3921 8.1861C80.8809 8.88875 80.8351 9.85119 80.8351 10.6302V15.1213H79.0326Z" fill="white"/>
<path d="M87.0215 14.1437C86.7464 15.0907 86.3494 16.7099 85.6315 17.2904C85.1579 17.6724 84.669 17.7487 84.0733 17.7487C83.4928 17.7487 83.279 17.7029 82.9887 17.6418V16.0531C83.7219 16.1449 84.1344 16.0531 84.4094 15.8241C84.6385 15.6103 84.6996 15.381 84.7301 15.2741L81.9653 7.48352H83.9356L85.6465 13.1812L87.0828 7.48352H88.9615L87.0215 14.1437Z" fill="white"/>
<path d="M90.0918 7.48332H91.9096V15.1212H90.0918V7.48332ZM90.0918 4.44348H91.9096V6.29182H90.0918V4.44348Z" fill="white"/>
<path d="M105.168 15.1212L102.297 10.0496L100.54 12.0661V15.1212H98.5386V4.33643H100.54V9.28589L104.863 4.33643H107.231L103.702 8.3998L107.475 15.1212H105.168Z" fill="white"/>
<path d="M112.226 6.36821H110.851L111.615 4.33643H113.875L112.226 6.36821ZM112.974 11.3177C112.669 11.4704 112.271 11.6231 111.523 11.7453C111.111 11.8218 110.668 11.8371 110.286 12.0661C110.026 12.2343 109.843 12.4939 109.843 12.8301C109.843 13.2882 110.179 13.731 111.095 13.731C112.103 13.731 112.699 13.2118 112.867 12.8604C112.989 12.6159 112.974 12.4021 112.974 12.1578V11.3177ZM112.974 15.1212L112.928 14.5255C112.638 14.77 112.378 14.8922 112.226 14.9533C111.721 15.1825 111.248 15.3045 110.683 15.3045C110.316 15.3045 108.941 15.2589 108.239 14.1283C108.116 13.9297 107.887 13.5172 107.903 12.9062C107.903 12.4786 108.009 11.6231 108.941 10.9968C109.568 10.569 110.163 10.4774 110.866 10.34C111.996 10.1109 112.409 10.0193 112.974 9.82056C112.974 9.62204 112.959 9.37751 112.867 9.19427C112.714 8.90413 112.333 8.67487 111.66 8.67487C110.958 8.67487 110.515 8.88866 110.316 9.14846C110.102 9.40825 110.118 9.71367 110.118 9.82056L108.254 9.71367C108.269 9.37751 108.33 8.56797 109.079 7.95695C109.552 7.55972 110.27 7.2543 111.599 7.2543C112.852 7.2543 113.585 7.5139 114.059 7.85006C114.38 8.07912 114.547 8.33891 114.609 8.46108C114.807 8.85812 114.807 9.39279 114.807 9.82056V13.8839C114.807 14.4644 114.838 14.6324 115.143 15.1212H112.974Z" fill="white"/>
<path d="M118.672 10.5997C118.534 11.0275 118.534 11.4094 118.534 11.8523V15.1214H116.762V7.48348H118.534V8.56789C118.656 8.33883 118.809 8.10978 118.993 7.9418C119.604 7.34585 120.597 7.31531 120.81 7.31531H120.963V9.19439C120.581 9.19439 119.115 9.19439 118.672 10.5997Z" fill="white"/>
<path d="M125.606 8.90422C125.438 8.90422 124.98 8.93476 124.568 9.19436C124.171 9.45416 123.636 10.0804 123.636 11.2261C123.636 11.5928 123.667 11.9135 123.789 12.2647C123.911 12.6314 124.446 13.6702 125.698 13.6702C127.088 13.6702 127.715 12.4482 127.669 11.2414C127.638 10.0499 126.951 8.90422 125.606 8.90422ZM129.273 12.9829C128.967 13.7619 127.974 15.3506 125.698 15.3506C125.377 15.3506 124.72 15.3353 123.972 14.9992C123.178 14.6479 121.727 13.5786 121.727 11.272C121.727 10.4469 121.956 9.83592 122.063 9.56105C122.383 8.79732 123.361 7.25439 125.637 7.25439C125.927 7.25439 126.599 7.28494 127.317 7.60582C128.142 7.95704 129.563 8.98057 129.578 11.272C129.578 11.5468 129.563 12.2647 129.273 12.9829Z" fill="white"/>
<path d="M132.954 4.33643H131.09V15.1212H132.954V4.33643Z" fill="white"/>
<path d="M139.155 14.1437C138.88 15.0907 138.483 16.7099 137.765 17.2904C137.292 17.6724 136.803 17.7487 136.207 17.7487C135.627 17.7487 135.413 17.7029 135.123 17.6418V16.0531C135.856 16.1449 136.268 16.0531 136.543 15.8241C136.772 15.6103 136.834 15.381 136.864 15.2741L134.099 7.48352H136.07L137.781 13.1812L139.217 7.48352H141.095L139.155 14.1437Z" fill="white"/>
<path d="M41.6477 25.1759C40.9972 25.7268 40.1246 25.7343 39.8797 25.7343C39.5584 25.7343 38.5252 25.719 37.7753 24.9309C37.6833 24.8314 37.584 24.7013 37.5151 24.5787L38.3645 23.9897C38.6017 24.3415 39.0456 24.8006 40.0405 24.8006C40.0863 24.8006 40.2777 24.8006 40.4386 24.7626C40.5532 24.7395 41.0813 24.594 41.0813 24.0891C41.0813 24.0355 41.0736 23.8901 40.982 23.7676C40.7981 23.5227 40.3085 23.4538 40.0405 23.3928L39.3976 23.2472C39.1221 23.1861 38.8236 23.1246 38.5787 22.9947C38.3263 22.8646 37.8059 22.5202 37.8059 21.7396C37.8059 21.6172 37.8211 21.265 38.0125 20.9435C38.2574 20.5304 38.8467 20.056 39.9412 20.056C40.4233 20.056 41.3721 20.1324 42.1223 21.1502L41.288 21.7701C41.1196 21.5024 40.737 20.9665 39.8874 20.9665C39.8339 20.9665 39.1527 20.959 38.9309 21.3798C38.8849 21.4641 38.8697 21.5407 38.8697 21.6247C38.8697 21.7168 38.8925 21.7931 38.9385 21.8697C39.0686 22.0916 39.367 22.1604 39.8644 22.2677L40.4233 22.3901C40.9359 22.5049 41.5023 22.658 41.8619 23.0788C42.015 23.2472 42.1758 23.4921 42.1758 23.9897C42.1758 24.4794 42.0227 24.8544 41.6477 25.1759Z" fill="white"/>
<path d="M46.002 25.5967V24.7701L48.9561 21.0969H46.2544V20.1937H50.2188V21.0509L47.3795 24.6861H50.2188V25.5967H46.002Z" fill="white"/>
<path d="M56.2801 21.1655L55.5301 23.6528H57.0224L56.2801 21.1655ZM57.6041 25.5967L57.2904 24.5407H55.2624L54.9486 25.5967H53.8618L55.6909 20.1937H56.8388L58.6832 25.5967H57.6041Z" fill="white"/>
<path d="M66.0685 25.5967L64.6297 23.0559L63.7498 24.0661V25.5967H62.7471V20.1937H63.7498V22.6733L65.9154 20.1937H67.1016L65.3338 22.2295L67.2241 25.5967H66.0685Z" fill="white"/>
<path d="M74.5475 25.5967L73.1087 23.0559L72.2288 24.0661V25.5967H71.2261V20.1937H72.2288V22.6733L74.3944 20.1937H75.5806L73.8128 22.2295L75.7029 25.5967H74.5475Z" fill="white"/>
<path d="M83.3028 21.6936C83.0196 21.2345 82.591 20.9819 82.0476 20.9819C81.7109 20.9819 81.466 21.089 81.3589 21.1427C80.9763 21.3493 80.5017 21.8545 80.5017 22.8645C80.5017 23.0712 80.5093 24.0661 81.2668 24.5635C81.5962 24.7779 81.9253 24.7932 82.0629 24.7932C82.17 24.7932 82.4149 24.7854 82.6828 24.6631C83.0809 24.4794 83.6013 24.0201 83.6241 23.0023C83.6318 22.5583 83.5475 22.0839 83.3028 21.6936ZM83.892 24.9615C83.7696 25.0916 83.4557 25.4054 82.9736 25.5815C82.8052 25.6426 82.4915 25.7344 82.0324 25.7344C81.2668 25.7344 80.6854 25.4819 80.1802 24.9003C79.6751 24.3261 79.4609 23.6528 79.4609 22.9028C79.4609 22.7269 79.4685 22.3136 79.6216 21.8545C79.9736 20.7752 80.8997 20.0559 82.0554 20.0559C83.0961 20.0559 83.7159 20.6223 83.9684 20.9128C84.2518 21.2345 84.6496 21.862 84.642 22.8953C84.642 23.232 84.6038 24.1885 83.892 24.9615Z" fill="white"/>
<path d="M88.9966 25.5967V20.1937H90.0146V24.6783H92.1574V25.5967H88.9966Z" fill="white"/>
<path d="M96.3589 25.5967V20.1937H97.3769V24.6783H99.5197V25.5967H96.3589Z" fill="white"/>
<path d="M105.741 19.6654H105.06L105.466 18.7472H106.568L105.741 19.6654ZM103.69 25.5966V20.1935H107.532V21.0967H104.685V22.3669H107.295V23.2393H104.685V24.6859H107.724V25.5966H103.69Z" fill="white"/>
<path d="M115.629 25.5967L115.621 25.1376C115.185 25.5429 114.741 25.7343 114.137 25.7343C113.807 25.7343 113.058 25.6885 112.407 25.0533C112.093 24.7395 111.604 24.0661 111.604 22.9487C111.604 22.26 111.81 21.5407 112.239 20.9973C112.484 20.691 113.126 20.056 114.221 20.056C114.374 20.056 114.718 20.0713 115.109 20.2167C115.461 20.3543 116.142 20.7141 116.494 21.6477L115.529 22.0305C115.438 21.7701 115.154 20.9665 114.213 20.9665C114.03 20.9665 113.601 20.9973 113.241 21.3568C112.981 21.6247 112.706 22.0838 112.706 22.9182C112.706 23.1399 112.706 23.9512 113.326 24.4716C113.593 24.6935 113.892 24.7778 114.236 24.7778C114.772 24.7778 115.246 24.5176 115.453 24.0125C115.499 23.9054 115.537 23.7751 115.568 23.5304H114.221V22.6425H116.494V25.5967H115.629Z" fill="white"/>
<path d="M121.973 20.1937H120.979V25.5967H121.973V20.1937Z" fill="white"/>
<path d="M130.851 24.4947C130.675 25.0379 130.055 25.7344 128.731 25.7344C128.096 25.7344 127.461 25.5813 127.017 25.0916C126.948 25.0226 126.764 24.8007 126.673 24.51C126.588 24.2345 126.588 23.9818 126.588 23.4081V20.1937H127.606V23.5152C127.606 23.8365 127.606 23.9513 127.66 24.1119C127.759 24.4334 128.05 24.7549 128.769 24.7549C128.9 24.7549 129.642 24.7549 129.864 24.1427C129.925 23.9666 129.933 23.8212 129.933 23.4614V20.1937H130.943V23.3085C130.943 23.9285 130.951 24.1885 130.851 24.4947Z" fill="white"/>
<path d="M139.552 25.5967L139.652 21.158L138.481 25.5967H137.57L136.4 21.158L136.499 25.5967H135.512V20.1937H136.981L138.037 24.2039L139.078 20.1937H140.54V25.5967H139.552Z" fill="white"/>
<path d="M14.9999 0C6.72898 0 0 6.72898 0 14.9999C0 23.271 6.72898 30 14.9999 30C23.271 30 30 23.271 30 14.9999C30 6.72898 23.271 0 14.9999 0ZM14.9999 1.60718C22.3966 1.60718 28.3928 7.60337 28.3928 14.9999C28.3928 22.3966 22.3966 28.3928 14.9999 28.3928C7.60337 28.3928 1.60718 22.3966 1.60718 14.9999C1.60718 7.60337 7.60337 1.60718 14.9999 1.60718Z" fill="white"/>
<path d="M10.6555 7.38135C12.4751 7.38135 13.9555 8.8618 13.9555 10.6814C13.9555 12.501 12.4751 13.9814 10.6555 13.9814C8.83592 13.9814 7.35547 12.501 7.35547 10.6814C7.35547 8.8618 8.83592 7.38135 10.6555 7.38135ZM10.6555 8.98853C9.72063 8.98853 8.96265 9.74651 8.96265 10.6814C8.96265 11.6163 9.72063 12.3742 10.6555 12.3742C11.5904 12.3742 12.3484 11.6163 12.3484 10.6814C12.3484 9.74651 11.5904 8.98853 10.6555 8.98853ZM28.0192 11.4542H13.1787C12.7517 11.4542 12.4059 11.1084 12.4059 10.6816C12.4059 10.2546 12.7517 9.90873 13.1787 9.90873H28.0192C28.446 9.90873 28.792 10.2546 28.792 10.6816C28.792 11.1084 28.446 11.4542 28.0192 11.4542Z" fill="white"/>
<path d="M16.4209 20.3872H2.4548C2.0772 20.3872 1.771 20.0812 1.771 19.7036C1.771 19.3258 2.0772 19.0198 2.4548 19.0198H16.4209C16.7985 19.0198 17.1045 19.3258 17.1045 19.7036C17.1045 20.0812 16.7985 20.3872 16.4209 20.3872Z" fill="white"/>
<path d="M18.9255 16.3378C17.1059 16.3378 15.6255 17.818 15.6255 19.6378C15.6255 21.4572 17.1059 22.9376 18.9255 22.9376C20.7451 22.9376 22.2256 21.4572 22.2256 19.6378C22.2256 17.818 20.7451 16.3378 18.9255 16.3378ZM18.9255 17.945C19.8604 17.945 20.6184 18.7027 20.6184 19.6378C20.6184 20.5727 19.8604 21.3307 18.9255 21.3307C17.9906 21.3307 17.2327 20.5727 17.2327 19.6378C17.2327 18.7027 17.9906 17.945 18.9255 17.945Z" fill="white"/>
</svg>
